<?xml version="1.0" encoding="UTF-8"?>
<svg xmlns="http://www.w3.org/2000/svg" xmlns:xlink="http://www.w3.org/1999/xlink" width="1920" height="1080" viewBox="0 0 1920 1080">
<defs>
<g>
<g id="glyph-0-0">
<path d="M 1.933594 -0.238281 C 2.152344 -0.238281 2.300781 -0.335938 2.378906 -0.535156 C 2.460938 -0.730469 2.5 -1.226562 2.5 -2.019531 C 2.5 -2.808594 2.460938 -3.304688 2.378906 -3.503906 C 2.300781 -3.707031 2.152344 -3.804688 1.933594 -3.804688 C 1.71875 -3.804688 1.570312 -3.707031 1.488281 -3.511719 C 1.40625 -3.3125 1.367188 -2.816406 1.367188 -2.019531 C 1.367188 -1.226562 1.40625 -0.730469 1.488281 -0.535156 C 1.570312 -0.335938 1.71875 -0.238281 1.933594 -0.238281 M 1.933594 0.078125 C 1.394531 0.078125 0.980469 -0.101562 0.691406 -0.460938 C 0.402344 -0.824219 0.261719 -1.34375 0.261719 -2.019531 C 0.261719 -2.699219 0.402344 -3.21875 0.691406 -3.582031 C 0.980469 -3.941406 1.394531 -4.125 1.933594 -4.125 C 2.472656 -4.125 2.886719 -3.941406 3.175781 -3.582031 C 3.460938 -3.21875 3.605469 -2.699219 3.605469 -2.019531 C 3.605469 -1.34375 3.460938 -0.824219 3.175781 -0.460938 C 2.886719 -0.101562 2.472656 0.078125 1.933594 0.078125 Z "/>
</g>
<g id="glyph-0-1">
<path d="M 1.199219 -3.847656 C 1.082031 -3.847656 1 -3.785156 0.949219 -3.660156 C 0.898438 -3.535156 0.875 -3.324219 0.875 -3.023438 C 0.875 -2.71875 0.898438 -2.503906 0.949219 -2.378906 C 1 -2.253906 1.082031 -2.1875 1.199219 -2.1875 C 1.316406 -2.1875 1.402344 -2.253906 1.453125 -2.378906 C 1.503906 -2.503906 1.527344 -2.71875 1.527344 -3.023438 C 1.527344 -3.324219 1.503906 -3.535156 1.453125 -3.660156 C 1.402344 -3.785156 1.316406 -3.847656 1.199219 -3.847656 M 1.199219 -4.125 C 1.542969 -4.125 1.808594 -4.027344 1.992188 -3.839844 C 2.175781 -3.652344 2.269531 -3.378906 2.269531 -3.023438 C 2.269531 -2.664062 2.175781 -2.394531 1.992188 -2.203125 C 1.808594 -2.011719 1.542969 -1.917969 1.199219 -1.917969 C 0.855469 -1.917969 0.59375 -2.011719 0.410156 -2.203125 C 0.226562 -2.394531 0.132812 -2.664062 0.132812 -3.023438 C 0.132812 -3.378906 0.226562 -3.652344 0.410156 -3.839844 C 0.59375 -4.027344 0.855469 -4.125 1.199219 -4.125 M 3.671875 -4.125 L 4.140625 -4.125 L 1.605469 0.078125 L 1.140625 0.078125 L 3.671875 -4.125 M 4.078125 -2.125 C 4.421875 -2.125 4.6875 -2.03125 4.871094 -1.84375 C 5.050781 -1.65625 5.144531 -1.382812 5.144531 -1.027344 C 5.144531 -0.671875 5.050781 -0.398438 4.871094 -0.207031 C 4.6875 -0.015625 4.421875 0.078125 4.078125 0.078125 C 3.734375 0.078125 3.46875 -0.015625 3.285156 -0.207031 C 3.101562 -0.398438 3.011719 -0.671875 3.011719 -1.027344 C 3.011719 -1.382812 3.101562 -1.65625 3.285156 -1.84375 C 3.46875 -2.03125 3.734375 -2.125 4.078125 -2.125 M 4.078125 -1.855469 C 3.960938 -1.855469 3.875 -1.792969 3.824219 -1.667969 C 3.773438 -1.542969 3.75 -1.328125 3.75 -1.027344 C 3.75 -0.726562 3.773438 -0.511719 3.828125 -0.386719 C 3.878906 -0.257812 3.960938 -0.195312 4.078125 -0.195312 C 4.195312 -0.195312 4.277344 -0.257812 4.328125 -0.386719 C 4.378906 -0.511719 4.40625 -0.726562 4.40625 -1.027344 C 4.40625 -1.328125 4.378906 -1.542969 4.328125 -1.667969 C 4.277344 -1.792969 4.195312 -1.855469 4.078125 -1.855469 Z "/>
</g>
</g>
</defs>
<g fill="rgb(96.078431%, 96.862745%, 98.039216%)" fill-opacity="1">
<use xlink:href="#glyph-0-0" x="30" y="25.216797"/>
<use xlink:href="#glyph-0-1" x="34" y="25.216797"/>
</g>
</svg>
